<?xml version="1.0" encoding="utf-8"?><svg version="1.1" id="Layer_1" xmlns="http://www.w3.org/2000/svg" xmlns:xlink="http://www.w3.org/1999/xlink" x="0px" y="0px" viewBox="0 0 110.75 122.88" style="enable-background:new 0 0 110.75 122.88" xml:space="preserve"><style type="text/css">.st0{fill-rule:evenodd;clip-rule:evenodd;}</style><g><path class="st0" d="M55.38,0c8.86,0,16.04,7.18,16.04,16.04c0,8.86-7.18,16.04-16.04,16.04c-8.86,0-16.04-7.18-16.04-16.04 C39.33,7.18,46.52,0,55.38,0L55.38,0z M3.43,49.75h103.89c1.89,0,3.43,1.55,3.43,3.43v16.53c0,1.88-1.55,3.43-3.43,3.43H3.43 C1.55,73.13,0,71.59,0,69.71V53.17C0,51.29,1.54,49.75,3.43,49.75L3.43,49.75z M55.38,90.8c8.86,0,16.04,7.18,16.04,16.04 c0,8.86-7.18,16.04-16.04,16.04c-8.86,0-16.04-7.18-16.04-16.04C39.33,97.98,46.52,90.8,55.38,90.8L55.38,90.8z"/></g></svg>